<svg width="11" height="10" viewBox="0 0 11 10" fill="none" xmlns="http://www.w3.org/2000/svg">
  <path d="M10.3817 3.70566L10.3988 3.70941H3.03815L5.35208 1.39038C5.46539 1.27716 5.52755 1.12379 5.52755 0.962813C5.52755 0.801837 5.46539 0.649536 5.35208 0.536049L4.99203 0.175821C4.87881 0.0626016 4.72794 0 4.56706 0C4.40608 0 4.25512 0.0621545 4.1419 0.175374L0.175376 4.14154C0.0617097 4.25521 -0.000444758 4.40662 2.39598e-06 4.56768C-0.000444758 4.72964 0.0617097 4.88114 0.175376 4.99463L4.1419 8.96115C4.25512 9.07428 4.40599 9.13653 4.56706 9.13653C4.72794 9.13653 4.87881 9.07419 4.99203 8.96115L5.35208 8.60092C5.46539 8.48788 5.52755 8.33692 5.52755 8.17595C5.52755 8.01506 5.46539 7.87206 5.35208 7.75893L3.01203 5.42693H10.3899C10.7214 5.42693 11 5.1412 11 4.80986V4.30037C11 3.96903 10.7132 3.70566 10.3817 3.70566Z" fill="#E32A01"/>
</svg>