<svg width="18" height="16" viewBox="0 0 18 16" fill="none" xmlns="http://www.w3.org/2000/svg">
  <path d="M8.86581 4.57153C6.4788 4.57153 4.5368 6.51352 4.5368 8.90054C4.5368 11.2876 6.4788 13.2295 8.86581 13.2295C11.2528 13.2295 13.1948 11.2876 13.1948 8.90054C13.1948 6.51352 11.2528 4.57153 8.86581 4.57153ZM8.86581 11.8443C7.24264 11.8443 5.92209 10.5237 5.92209 8.90054C5.92209 7.27737 7.24264 5.95681 8.86581 5.95681C10.489 5.95681 11.8095 7.27737 11.8095 8.90054C11.8095 10.5237 10.489 11.8443 8.86581 11.8443Z" fill="#0EA6A6"/>
  <path d="M15.6537 2.49351H13.1056C13.025 2.49351 12.9523 2.44949 12.9149 2.37829L12.2099 0.89697C12.208 0.892918 12.2061 0.8889 12.204 0.884883C11.9312 0.339082 11.3825 0 10.7723 0H7.00869C6.39844 0 5.8498 0.339082 5.57693 0.884918C5.57489 0.888935 5.57295 0.892952 5.57101 0.897004L4.86604 2.37839C4.82864 2.44949 4.75598 2.49351 4.67532 2.49351H2.07792C0.932156 2.49351 0 3.42566 0 4.57143V13.9221C0 15.0678 0.932156 16 2.07792 16H15.6537C16.7994 16 17.7316 15.0678 17.7316 13.9221V4.57143C17.7316 3.42566 16.7994 2.49351 15.6537 2.49351ZM16.3463 13.922C16.3463 14.304 16.0356 14.6147 15.6537 14.6147H2.07792C1.696 14.6147 1.38528 14.304 1.38528 13.922V4.57143C1.38528 4.18951 1.696 3.87879 2.07792 3.87879H4.67532C5.28554 3.87879 5.83418 3.53974 6.10708 2.99394C6.10913 2.98992 6.11107 2.98587 6.11304 2.98182L6.81801 1.50043C6.85538 1.4293 6.92803 1.38528 7.00869 1.38528H10.7723C10.8529 1.38528 10.9256 1.4293 10.9629 1.5004L11.6679 2.98178C11.6699 2.98584 11.6718 2.98989 11.6739 2.9939C11.9468 3.53971 12.4954 3.87875 13.1056 3.87875H15.6537C16.0356 3.87875 16.3463 4.18947 16.3463 4.57139V13.922Z" fill="#0EA6A6"/>
  <path d="M14.961 5.26416H13.5758V6.64944H14.961V5.26416Z" fill="#0EA6A6"/>
</svg>