<svg width="138" height="124" viewBox="0 0 138 124" fill="none" xmlns="http://www.w3.org/2000/svg">
  <path d="M68.7105 35.4284C50.2111 35.4284 35.1607 50.4789 35.1607 68.9782C35.1607 87.4776 50.2111 102.528 68.7105 102.528C87.2098 102.528 102.26 87.4776 102.26 68.9782C102.26 50.4789 87.2098 35.4284 68.7105 35.4284ZM68.7105 91.7921C56.1309 91.7921 45.8966 81.5578 45.8966 68.9782C45.8966 56.3987 56.1309 46.1644 68.7105 46.1644C81.29 46.1644 91.5243 56.3987 91.5243 68.9782C91.5243 81.5578 81.29 91.7921 68.7105 91.7921Z" fill="#D0D2E0"/>
  <path d="M121.316 19.3247H101.569C100.944 19.3247 100.38 18.9835 100.09 18.4317L94.627 6.95152C94.612 6.92011 94.597 6.88898 94.5811 6.85784C92.4664 2.62789 88.2145 0 83.485 0H54.3174C49.5879 0 45.336 2.62789 43.2212 6.85811C43.2054 6.88925 43.1904 6.92038 43.1754 6.95178L37.7118 18.4325C37.422 18.9835 36.8589 19.3247 36.2338 19.3247H16.1039C7.22421 19.3247 0 26.5489 0 35.4286V107.896C0 116.776 7.22421 124 16.1039 124H121.316C130.196 124 137.42 116.776 137.42 107.896V35.4286C137.42 26.5489 130.196 19.3247 121.316 19.3247ZM126.684 107.896C126.684 110.856 124.276 113.264 121.316 113.264H16.1039C13.144 113.264 10.7359 110.856 10.7359 107.896V35.4286C10.7359 32.4687 13.144 30.0606 16.1039 30.0606H36.2338C40.9629 30.0606 45.2149 27.433 47.3299 23.203C47.3457 23.1719 47.3608 23.1405 47.3761 23.1091L52.8396 11.6284C53.1292 11.0771 53.6923 10.7359 54.3174 10.7359H83.485C84.1101 10.7359 84.6732 11.0771 84.9628 11.6281L90.4263 23.1088C90.4416 23.1402 90.4567 23.1716 90.4725 23.2028C92.5875 27.4327 96.8394 30.0603 101.569 30.0603H121.316C124.276 30.0603 126.684 32.4684 126.684 35.4283V107.896Z" fill="#D0D2E0"/>
  <path d="M115.947 40.7963H105.212V51.5322H115.947V40.7963Z" fill="#D0D2E0"/>
</svg>