<svg width="112" height="124" viewBox="0 0 112 124" fill="none" xmlns="http://www.w3.org/2000/svg">
  <path fill-rule="evenodd" clip-rule="evenodd" d="M88.9366 1.48356C75.2468 -1.76065 63.5998 1.81331 55.9567 7.40709C42.4187 -2.94779 21.3897 -2.45994 9.48545 8.95949C-0.687239 18.7091 -1.50335 33.4155 1.59092 46.1283C1.69933 46.1283 3.39478 52.4976 3.50018 52.5141C3.68388 53.0231 3.86156 53.5395 4.0558 54.0364C5.67295 57.861 7.61534 61.5395 9.86489 65.0297L9.96504 65.1953C11.0537 66.9954 12.1454 68.8005 13.1534 70.6807C16.1393 75.9764 18.0862 81.793 18.8902 87.8174C19.4684 93.6205 20.3583 99.3874 21.5584 105.093C21.5779 105.169 21.5584 105.248 21.587 105.323C21.6171 105.4 21.6397 105.459 21.6668 105.534C21.9228 106.647 22.1562 107.761 22.4663 108.866C23.7808 113.778 26.5378 123.997 35.4382 123.997C38.3036 123.997 45.912 123.997 50.9803 87.6066C51.9153 81.0281 54.3922 80.1924 55.8679 79.9786L56.2759 80.0524C57.2655 80.256 59.895 80.7971 60.8819 87.6171C65.9412 124 73.5451 124 76.4075 124C85.2717 124 87.9359 114.198 89.3683 108.929L89.3763 108.899C91.129 101.977 92.329 94.929 92.966 87.8174C93.7775 81.787 95.7305 75.9658 98.7223 70.6672C99.7583 68.7097 100.892 66.8351 102.011 64.9635C104.245 61.4898 106.174 57.8279 107.773 54.0199C113.293 40.0106 114.767 20.8171 102.356 8.95648C98.5688 5.39544 93.9582 2.82817 88.9366 1.48356ZM96.402 61.5816C98.4378 58.4226 100.198 55.095 101.666 51.6348C106.185 40.1461 107.886 23.3467 97.8309 13.7191C94.0862 10.2153 89.3793 7.91452 84.314 7.11498C76.2554 5.68152 67.9528 7.35589 61.0792 11.7978C65.4112 15.3739 72.5588 20.2524 78.2023 20.2524C80.0197 20.2524 81.4923 21.725 81.4923 23.5409C81.4923 25.3584 80.0197 26.831 78.2023 26.831C67.0825 26.831 54.6738 14.999 53.7071 14.0579C42.9653 4.26313 24.0805 4.0975 14.0448 13.7101C4.00912 23.3211 5.4757 39.6025 10.1931 51.6348C11.6703 55.1055 13.441 58.4422 15.4858 61.6117C16.6738 63.5692 17.8603 65.5326 18.9459 67.5714C22.3338 73.5988 24.5322 80.2195 25.4266 87.0751C26.0304 93.8403 27.1612 100.548 28.8069 107.139C30.1531 112.126 31.8756 117.422 35.4382 117.422C36.6759 117.03 41.1494 110.515 44.468 86.6866C45.6184 78.5481 49.3466 74.0746 55.5396 73.385C55.6676 73.3895 55.7941 73.4016 55.9206 73.4212C56.041 73.4031 56.1615 73.3925 56.2834 73.388C56.7186 73.4362 57.1507 73.5085 57.5784 73.6018C63.0095 74.7101 66.3056 79.1203 67.3942 86.6866C70.7068 110.498 75.1607 117.016 76.4767 117.422C79.9489 117.422 81.6835 112.123 83.0417 107.158C84.695 100.569 85.8288 93.8614 86.4326 87.0947C87.3375 80.2406 89.5389 73.6214 92.9223 67.5925C94.0079 65.5296 95.205 63.5556 96.402 61.5816Z" fill="#D0D2E0"/>
</svg>