<svg width="20" height="22" viewBox="0 0 20 22" fill="none" xmlns="http://www.w3.org/2000/svg">
  <path d="M18.8831 8.93961C18.5916 9.62654 18.2422 10.2872 17.838 10.9143C17.6004 11.3062 17.3627 11.6981 17.1472 12.1076C16.4755 13.3045 16.0385 14.6186 15.8588 15.9793C15.739 17.3227 15.5139 18.6544 15.1856 19.9625C14.916 20.9481 14.5717 22 13.8823 22C13.6211 21.9196 12.7368 20.6255 12.0792 15.8983C11.8631 14.3962 11.2087 13.5207 10.1305 13.3006C10.0456 13.2821 9.95982 13.2678 9.87343 13.2582C9.84921 13.2591 9.8253 13.2612 9.80139 13.2648C9.77628 13.2609 9.75117 13.2585 9.72576 13.2576C8.49627 13.3945 7.75613 14.2826 7.52775 15.8983C6.86892 20.6288 5.98081 21.9223 5.73509 22C5.02783 22 4.68586 20.9487 4.41862 19.9586C4.09189 18.6502 3.8674 17.3185 3.74753 15.9754C3.56997 14.6144 3.13354 13.3 2.46095 12.1034C2.24543 11.6987 2.00987 11.3089 1.77402 10.9203C1.36808 10.2911 1.01654 9.62863 0.723291 8.93961C-0.213245 6.55089 -0.504398 3.3186 1.48795 1.41055C3.48029 -0.497796 7.22942 -0.464914 9.36197 1.4796C9.55388 1.66643 12.0173 4.0154 14.2249 4.0154C14.5857 4.0154 14.8781 3.72304 14.8781 3.36224C14.8781 3.00174 14.5857 2.70939 14.2249 2.70939C13.1045 2.70939 11.6855 1.74086 10.8255 1.03091C12.1901 0.149081 13.8384 -0.183324 15.4382 0.101254C16.4438 0.259983 17.3783 0.716742 18.1217 1.41234C20.1179 3.32368 19.7801 6.6588 18.8831 8.93961Z" fill="url(#paint0_linear)"/>
  <defs>
    <linearGradient id="paint0_linear" x1="9.79664" y1="0" x2="9.79664" y2="22" gradientUnits="userSpaceOnUse">
      <stop stop-color="#182C9F"/>
      <stop offset="1" stop-color="#0EA6A6"/>
    </linearGradient>
  </defs>
</svg>