<svg width="17" height="19" viewBox="0 0 17 19" fill="none" xmlns="http://www.w3.org/2000/svg">
  <path d="M14.5624 11.4775L13.3657 10.2202L7.98083 4.5628C6.9884 3.52791 5.38642 3.53103 4.39771 4.56983C3.409 5.60863 3.40602 6.58343 4.39102 7.62613L9.77567 13.2853C9.9959 13.5168 10.3531 13.5168 10.5735 13.2853C10.7937 13.0537 10.7937 12.6785 10.5735 12.447L5.18885 6.78789C4.63813 6.20927 5.04508 5.55211 5.18885 5.40105C5.73957 4.82244 6.63228 4.82244 7.183 5.40105L12.5693 11.0585L13.7659 12.3157C14.7574 13.3577 14.757 15.0468 13.7653 16.0884C12.7735 17.1299 11.166 17.1296 10.1745 16.0876L9.17751 15.0397L3.59331 9.17259L3.19433 8.75353C1.79983 7.24257 1.81754 4.83545 3.23397 3.34714C4.65052 1.85896 7.61576 1.84035 9.05386 3.3055L15.0369 9.59177C15.1795 9.74144 15.3872 9.79987 15.5818 9.74508C15.7765 9.69029 15.9286 9.53061 15.9808 9.32602C16.0329 9.12144 15.9772 8.90332 15.8347 8.75353L9.85169 2.46738C7.97795 0.50769 4.27384 0.511334 2.40443 2.47558C0.534896 4.43969 0.531428 7.62311 2.39663 9.59177L8.37968 15.8779L9.37818 16.9258C10.8181 18.379 13.1002 18.3548 14.5117 16.8712C15.9235 15.3877 15.9459 12.9901 14.5624 11.4775Z" fill="#1F285A" stroke="#1F285A" stroke-width="0.3"/>
</svg>