<svg width="20" height="22" viewBox="0 0 20 22" fill="none" xmlns="http://www.w3.org/2000/svg">
  <path fill-rule="evenodd" clip-rule="evenodd" d="M5.70142 4.29912C5.70142 1.92859 7.62948 0 10 0C12.3707 0 14.2987 1.92859 14.2986 4.29912V6.52638C14.2986 8.89708 12.3707 10.8257 10 10.8257C7.62948 10.8257 5.70142 8.89708 5.70142 6.52638V4.29912ZM13.2848 11.5312C15.9033 12.3433 18.1035 14.0823 19.4799 16.428C19.5116 16.4817 19.5116 16.5484 19.4799 16.6022C17.526 19.9318 13.8934 22.0001 9.99978 22.0001C6.10634 22.0001 2.4739 19.9318 0.519966 16.6022C0.488462 16.5486 0.488462 16.4819 0.519966 16.4282C1.89592 14.0825 4.09591 12.3434 6.71476 11.5312C6.77513 11.5124 6.84131 11.5284 6.88636 11.5731C7.89783 12.5703 9.59921 13.6793 10.0031 13.9374C10.3815 13.7111 11.8951 12.7741 13.1132 11.5731C13.1584 11.5284 13.2241 11.5124 13.2848 11.5312ZM15.6613 17.8777C15.756 17.8777 15.8463 17.8052 15.8463 17.7103V16.6772C15.8463 16.5824 15.756 16.5021 15.6613 16.5021H14.4855C14.3904 16.5021 14.2985 16.4284 14.2985 16.3333V15.1244C14.2985 15.0295 14.2362 14.9547 14.1416 14.9547H13.1072C13.0123 14.9547 12.9229 15.0295 12.9229 15.1244V16.3298C12.9229 16.4248 12.8582 16.5023 12.7633 16.5023H11.5489C11.4541 16.5023 11.3756 16.5788 11.3756 16.6737V17.7103C11.3756 17.805 11.4541 17.8777 11.5489 17.8777H12.7633C12.8582 17.8777 12.9229 17.9594 12.9233 18.0542V19.2582C12.9233 19.3529 13.0127 19.4253 13.1076 19.4253H14.1532C14.248 19.4253 14.2987 19.3529 14.2987 19.2582V18.0542C14.2987 17.9592 14.4022 17.8777 14.4971 17.8777H15.6613Z" fill="url(#paint0_linear)"/>
  <defs>
    <linearGradient id="paint0_linear" x1="10" y1="0" x2="10" y2="22.0001" gradientUnits="userSpaceOnUse">
      <stop stop-color="#182C9F"/>
      <stop offset="1" stop-color="#0EA6A6"/>
    </linearGradient>
  </defs>
</svg>