<svg width="17" height="19" viewBox="0 0 17 19" fill="none" xmlns="http://www.w3.org/2000/svg">
  <path d="M12.9823 8.2654C12.8905 8.06253 12.6888 7.93333 12.4666 7.93333H10.2V0.566667C10.2 0.253867 9.94609 0 9.63329 0H7.36662C7.05382 0 6.79996 0.253867 6.79996 0.566667V7.93333H4.53329C4.31116 7.93333 4.10942 8.06367 4.01762 8.2654C3.92469 8.46827 3.96096 8.70513 4.10716 8.87287L8.07382 13.4062C8.18149 13.5297 8.33676 13.6 8.49996 13.6C8.66316 13.6 8.81842 13.5286 8.92609 13.4062L12.8928 8.87287C13.0401 8.70627 13.0741 8.46827 12.9823 8.2654Z" fill="#0EA6A6"/>
  <path d="M14.7333 12.4667V15.8667H2.26667V12.4667H0V17C0 17.6267 0.507733 18.1333 1.13333 18.1333H15.8667C16.4934 18.1333 17 17.6267 17 17V12.4667H14.7333Z" fill="#0EA6A6"/>
</svg>