<svg width="23" height="22" viewBox="0 0 23 22" fill="none" xmlns="http://www.w3.org/2000/svg">
  <path d="M11.5736 0C13.7804 0 15.7502 0.451778 17.4829 1.35534C19.2157 2.24276 20.5643 3.49322 21.5288 5.10671C22.5096 6.72021 23 8.55959 23 10.6249C23 12.6901 22.6158 14.3117 21.8475 15.4895C21.0792 16.6674 20.0085 17.2563 18.6354 17.2563C17.8507 17.2563 17.1969 17.0627 16.6738 16.6755C16.167 16.2721 15.8401 15.6993 15.693 14.9571C15.2026 15.6993 14.5569 16.2721 13.7559 16.6755C12.9712 17.0627 12.064 17.2563 11.0341 17.2563C9.88984 17.2563 8.85999 16.9901 7.94456 16.4576C7.02914 15.9252 6.30988 15.1911 5.78678 14.2552C5.28003 13.3033 5.02665 12.2303 5.02665 11.0363C5.02665 9.85845 5.28003 8.80161 5.78678 7.86579C6.30988 6.91382 7.02914 6.17968 7.94456 5.66337C8.85999 5.13091 9.88984 4.86469 11.0341 4.86469C11.9822 4.86469 12.8404 5.04217 13.6087 5.39714C14.377 5.73597 15.0146 6.24422 15.5213 6.92189V4.9615H17.6546V13.6744C17.6546 14.2714 17.7854 14.7151 18.0469 15.0055C18.3085 15.2798 18.6436 15.4169 19.0522 15.4169C19.7715 15.4169 20.3273 15.0055 20.7196 14.1826C21.1283 13.3436 21.3326 12.1657 21.3326 10.6491C21.3326 8.85809 20.924 7.28493 20.1066 5.92959C19.2893 4.55812 18.1368 3.49322 16.6493 2.73487C15.178 1.97653 13.4861 1.59736 11.5736 1.59736C9.64463 1.59736 7.93639 1.99267 6.44883 2.78328C4.97761 3.57389 3.83333 4.67913 3.01599 6.09901C2.19865 7.51889 1.78998 9.14045 1.78998 10.9637C1.78998 12.8031 2.19048 14.4327 2.99147 15.8526C3.80881 17.2725 4.94492 18.3777 6.39979 19.1683C7.871 19.9751 9.5629 20.3784 11.4755 20.3784C12.2765 20.3784 13.0938 20.2897 13.9275 20.1122C14.7612 19.9347 15.5213 19.6685 16.2079 19.3135L16.7473 20.8625C16.0281 21.2336 15.1944 21.516 14.2463 21.7096C13.2982 21.9032 12.3746 22 11.4755 22C9.23596 22 7.24165 21.524 5.49254 20.5721C3.75977 19.6362 2.41116 18.3293 1.4467 16.6513C0.482232 14.9732 0 13.0774 0 10.9637C0 8.85002 0.482232 6.96223 1.4467 5.30033C2.42751 3.63843 3.79247 2.33957 5.54158 1.40374C7.30704 0.467913 9.3177 0 11.5736 0ZM11.3774 15.3685C12.1784 15.3685 12.8895 15.1911 13.5107 14.8361C14.1482 14.4811 14.6468 13.9809 15.0064 13.3355C15.3824 12.674 15.5704 11.9076 15.5704 11.0363C15.5704 10.165 15.3824 9.40667 15.0064 8.76128C14.6468 8.09974 14.1482 7.59956 13.5107 7.26073C12.8895 6.90576 12.1784 6.72827 11.3774 6.72827C10.135 6.72827 9.12971 7.12358 8.36141 7.91419C7.59311 8.68867 7.20895 9.72937 7.20895 11.0363C7.20895 12.3432 7.59311 13.392 8.36141 14.1826C9.14606 14.9732 10.1514 15.3685 11.3774 15.3685Z" fill="url(#paint0_linear)"/>
  <defs>
    <linearGradient id="paint0_linear" x1="11.5" y1="0" x2="11.5" y2="22" gradientUnits="userSpaceOnUse">
      <stop stop-color="#182C9F"/>
      <stop offset="1" stop-color="#0EA6A6"/>
    </linearGradient>
  </defs>
</svg>