<svg width="18" height="17" viewBox="0 0 18 17" fill="none" xmlns="http://www.w3.org/2000/svg">
  <path d="M13.0366 11.205C13.8321 10.0528 14.2989 8.65588 14.2989 7.14945C14.2989 3.20098 11.0986 0 7.14945 0C3.20031 0 0 3.20095 0 7.14941C0 11.0979 3.20031 14.2989 7.14945 14.2989C8.79777 14.2989 10.3146 13.7397 11.5238 12.8027L15.7211 17L17.2765 15.4448L13.0366 11.205ZM7.14945 12.759C4.05631 12.759 1.53987 10.2426 1.53987 7.14941C1.53987 4.05627 4.05624 1.53984 7.14945 1.53984C10.2427 1.53984 12.759 4.0562 12.759 7.14941C12.759 10.2426 10.2426 12.759 7.14945 12.759Z" fill="#182C9F"/>
  <path d="M7.91928 6.48946V3.73962H6.37941V6.48946H3.62964V8.02933H6.37941V10.7791H7.91928V8.02933H10.6691V6.48946H7.91928Z" fill="#182C9F"/>
</svg>