<svg width="22" height="22" viewBox="0 0 22 22" fill="none" xmlns="http://www.w3.org/2000/svg">
  <path d="M21.9296 12.2669C21.8828 12.3788 21.8159 12.4805 21.7307 12.5658L18.9816 15.3149C18.6232 15.6724 18.0438 15.6724 17.6854 15.3149C17.327 14.9565 17.327 14.3762 17.6854 14.0187L18.8707 12.8335H13.7501C13.2432 12.8335 12.8335 12.4228 12.8335 11.9168C12.8335 11.4108 13.2432 11.0002 13.7501 11.0002H18.8706L17.6854 9.81494C17.327 9.45653 17.327 8.87628 17.6854 8.51879C17.8641 8.33913 18.0988 8.25019 18.3335 8.25019C18.5682 8.25019 18.8028 8.33909 18.9816 8.51879L21.7307 11.2679C21.8159 11.3522 21.8828 11.454 21.9296 11.5667C22.0221 11.7903 22.0221 12.0433 21.9296 12.2669Z" fill="#4C537B"/>
  <path d="M15.5833 9.16668C15.0764 9.16668 14.6666 8.75603 14.6666 8.25003V3.66669H11V18.3334C11 18.7376 10.7341 19.0951 10.3464 19.2115L7.16279 20.1667H14.6666V15.5833C14.6666 15.0773 15.0764 14.6667 15.5833 14.6667C16.0902 14.6667 16.4999 15.0773 16.4999 15.5833V21.0833C16.4999 21.5893 16.0902 22 15.5833 22H0.916651C0.883651 22 0.854303 21.9863 0.822248 21.9826C0.779151 21.978 0.739749 21.9707 0.698499 21.9606C0.602249 21.9358 0.515151 21.8983 0.433597 21.8469C0.413445 21.8341 0.388695 21.8332 0.369445 21.8185C0.362054 21.813 0.359304 21.8029 0.351956 21.7974C0.252054 21.7186 0.168652 21.6223 0.108152 21.5078C0.0953045 21.483 0.0925545 21.4564 0.0824998 21.4308C0.0531522 21.3611 0.0210976 21.2933 0.0100976 21.2163C0.00549999 21.1888 0.01375 21.1631 0.0128476 21.1365C0.0119453 21.1182 0 21.1017 0 21.0833V2.75004C0 2.31279 0.308902 1.93694 0.736999 1.85169L9.90363 0.0183468C9.96323 0.00549889 10.0237 0 10.0833 0C10.2932 0 10.4994 0.072401 10.6644 0.208097C10.8762 0.382248 10.9999 0.641693 10.9999 0.916693V1.83334H15.5833C16.0902 1.83334 16.4999 2.24399 16.4999 2.74999V8.25003C16.4999 8.75603 16.0902 9.16668 15.5833 9.16668Z" fill="#4C537B"/>
</svg>