<svg width="28" height="28" viewBox="0 0 28 28" fill="none" xmlns="http://www.w3.org/2000/svg">
  <path d="M18.8226 17.1296L15.1946 13.5016C14.8989 13.2059 14.8325 12.7511 15.0318 12.3831C16.4007 9.85481 15.9352 6.66759 13.9005 4.63285C11.3458 2.07815 7.18911 2.07847 4.63401 4.63357C2.07891 7.18866 2.07818 11.3458 4.63288 13.9005C6.66762 15.9352 9.85484 16.4007 12.3831 15.0317C12.7511 14.8325 13.2059 14.8989 13.5016 15.1946L17.1297 18.8226C17.4984 19.1914 17.4988 19.7899 17.1296 20.1591L14.7683 22.5204L16.461 24.2131L18.8223 21.8518C19.1915 21.4826 19.7896 21.4825 20.1588 21.8517L22.5197 24.2126L24.2127 22.5197L21.8518 20.1588C21.4826 19.7896 21.483 19.1911 21.8519 18.8222L24.2136 16.4605L22.5209 14.7678L20.1592 17.1295C19.7903 17.4984 19.1914 17.4984 18.8226 17.1296ZM12.2071 12.2066C10.5855 13.8282 7.94753 13.8284 6.32625 12.2071C4.70497 10.5858 4.70518 7.94779 6.32671 6.32626C7.94823 4.70473 10.5862 4.70453 12.2075 6.32581C13.8288 7.94708 13.8286 10.5851 12.2071 12.2066Z" fill="#EA2C93"/>
</svg>