<svg width="22" height="22" viewBox="0 0 22 22" fill="none" xmlns="http://www.w3.org/2000/svg">
  <path fill-rule="evenodd" clip-rule="evenodd" d="M20 11C20 15.9706 15.9706 20 11 20C6.02944 20 2 15.9706 2 11C2 6.02944 6.02944 2 11 2C15.9706 2 20 6.02944 20 11ZM22 11C22 17.0751 17.0751 22 11 22C4.92487 22 0 17.0751 0 11C0 4.92487 4.92487 0 11 0C17.0751 0 22 4.92487 22 11ZM12.0957 9.31606H9.87943L8 17H10.2163L12.0957 9.31606ZM10.5355 7.35751C10.7837 7.59931 11.1028 7.72021 11.4929 7.72021C11.9421 7.72021 12.3026 7.58117 12.5745 7.30311C12.8582 7.02504 13 6.66235 13 6.21503C13 5.87651 12.8759 5.5924 12.6277 5.36269C12.3794 5.1209 12.0603 5 11.6702 5C11.221 5 10.8546 5.13903 10.5709 5.4171C10.2991 5.69516 10.1631 6.03972 10.1631 6.45078C10.1631 6.80138 10.2872 7.10363 10.5355 7.35751Z" fill="#1F285A"/>
</svg>