<svg width="28" height="28" viewBox="0 0 28 28" fill="none" xmlns="http://www.w3.org/2000/svg">
  <path d="M15.2824 12.6337C14.915 12.8336 14.4619 12.7689 14.1681 12.4751L9.80858 8.1156C9.21953 7.52654 9.64179 6.50747 10.4801 6.50558L11.2086 6.50314C12.2309 6.49901 12.5379 5.07746 11.5765 4.68307C11.329 4.58099 11.8041 4.61025 4.63433 4.63472L4.61229 11.2149C4.61144 11.4672 4.7089 11.7042 4.8869 11.8822C5.47952 12.4748 6.50095 12.0561 6.50275 11.209C6.50507 10.5168 6.43783 10.1586 6.78344 9.81302C7.14872 9.44774 7.74627 9.4392 8.11563 9.80856L12.4751 14.1681C12.7689 14.4618 12.8336 14.915 12.6338 15.2824C11.2611 17.8069 11.7146 20.9822 13.7361 23.0037C16.2741 25.5417 20.4173 25.5278 22.9724 22.9727C25.5275 20.4176 25.5417 16.2741 23.0037 13.7361C20.9822 11.7146 17.8069 11.2611 15.2824 12.6337ZM21.2907 21.2911C19.6692 22.9126 17.0398 22.9214 15.4291 21.3107C13.8184 19.7 13.8272 17.0706 15.4487 15.4491C17.0702 13.8276 19.6996 13.8187 21.3103 15.4294C22.921 17.0402 22.9122 19.6696 21.2907 21.2911Z" fill="#2C9AEA"/>
</svg>