<svg width="10" height="12" viewBox="0 0 10 12" fill="none" xmlns="http://www.w3.org/2000/svg">
  <path fill-rule="evenodd" clip-rule="evenodd" d="M2.73845 2.26182C2.73845 1.01466 3.75283 0 5 0C6.24725 0 7.26156 1.01466 7.26154 2.26182V3.43361C7.26154 4.68086 6.24725 5.69551 5 5.69551C3.75283 5.69551 2.73845 4.68086 2.73845 3.43361V2.26182ZM6.72816 6.0667C8.10579 6.49393 9.26331 7.40886 9.9875 8.64297C10.0042 8.67121 10.0042 8.7063 9.9875 8.73464C8.95951 10.4863 7.04835 11.5745 4.99987 11.5745C2.95149 11.5745 1.04042 10.4863 0.0124309 8.73464C-0.00414362 8.7064 -0.00414362 8.6713 0.0124309 8.64306C0.736338 7.40896 1.89377 6.49402 3.27159 6.0667C3.30335 6.05679 3.33816 6.06522 3.36187 6.08874C3.89401 6.61338 4.78913 7.19682 5.00163 7.33266C5.20071 7.21358 5.99703 6.7206 6.63788 6.08874C6.66167 6.06522 6.69621 6.05679 6.72816 6.0667Z" fill="url(#paint0_linear)"/>
  <defs>
    <linearGradient id="paint0_linear" x1="5" y1="0" x2="5" y2="11.5745" gradientUnits="userSpaceOnUse">
      <stop stop-color="#182C9F"/>
      <stop offset="1" stop-color="#0EA6A6"/>
    </linearGradient>
  </defs>
</svg>