<svg width="22" height="22" viewBox="0 0 22 22" fill="none" xmlns="http://www.w3.org/2000/svg">
  <path d="M21.4335 16.2264L18.6986 13.4915C17.9446 12.7375 16.7177 12.7375 15.9637 13.4915L14.7206 14.7346C14.1493 15.3059 13.2198 15.3057 12.6488 14.7349L7.26054 9.34197C6.68798 8.76941 6.68789 7.8427 7.26054 7.27006C7.46077 7.06983 8.03574 6.49486 8.50367 6.02693C9.25437 5.27627 9.26486 4.05316 8.50294 3.29132L5.76875 0.565727C5.01473 -0.188246 3.78784 -0.188246 3.03585 0.563751C2.47313 1.12157 2.29163 1.30152 2.03931 1.55165C-0.67975 4.27067 -0.67975 8.69486 2.03919 11.4138L10.5767 19.9558C13.3022 22.6813 17.7133 22.6815 20.439 19.9558L21.4335 18.9613C22.1875 18.2073 22.1875 16.9804 21.4335 16.2264ZM3.9455 1.47735C4.19682 1.22603 4.60571 1.22599 4.85785 1.47804L7.59204 4.20364C7.84397 4.45556 7.84397 4.86329 7.59204 5.11526L7.13619 5.57107L3.492 1.92689L3.9455 1.47735ZM11.4885 19.0443L2.95094 10.5022C0.847274 8.39855 0.731646 5.09532 2.59533 2.85351L6.22894 6.48713C5.27418 7.56947 5.31396 9.21874 6.3487 10.2535L11.7368 15.6461C11.7369 15.6461 11.7369 15.6462 11.737 15.6463C12.7706 16.6799 14.4198 16.7223 15.5035 15.7662L19.1372 19.3999C16.9025 21.2604 13.6067 21.1625 11.4885 19.0443ZM20.5219 18.0497L20.0661 18.5055L16.4195 14.8589L16.8753 14.4031C17.1267 14.1518 17.5356 14.1518 17.787 14.4031L20.5219 17.1381C20.7733 17.3894 20.7733 17.7984 20.5219 18.0497Z" fill="url(#paint0_linear)"/>
  <defs>
    <linearGradient id="paint0_linear" x1="10.9995" y1="0" x2="10.9995" y2="22" gradientUnits="userSpaceOnUse">
      <stop stop-color="#182C9F"/>
      <stop offset="1" stop-color="#0EA6A6"/>
    </linearGradient>
  </defs>
</svg>