<svg width="15" height="18" viewBox="0 0 15 18" fill="none" xmlns="http://www.w3.org/2000/svg">
  <path d="M9.53376 0.700734H7.49988V2.01459H8.89815V4.48903C8.89815 6.66239 7.18736 8.43064 5.08464 8.43064C2.98191 8.43064 1.27116 6.66243 1.27116 4.48907V2.01459H2.62708V0.700734H0.63558C0.284525 0.700734 0 0.994816 0 1.35766V4.48907C0 7.38703 2.28089 9.74454 5.08467 9.74454C7.88845 9.74454 10.1693 7.38703 10.1693 4.48907V1.35766C10.1693 0.994816 9.88482 0.700734 9.53376 0.700734Z" fill="#1F285A"/>
  <path d="M12.0125 10.292V13.4015C12.0125 15.2126 10.5869 16.6861 8.83458 16.6861C7.08226 16.6861 5.65665 15.2126 5.65665 13.4015V9.10948H4.38549V13.4015C4.38549 15.937 6.38121 18 8.83458 18C11.2877 18 13.2837 15.937 13.2837 13.4015V10.292H12.0125Z" fill="#1F285A"/>
  <path d="M12.6483 6.04378C11.3513 6.04378 10.2965 7.13408 10.2965 8.47445C10.2965 9.81461 11.3513 10.9051 12.6481 10.9051C13.9449 10.9051 14.9998 9.81461 15 8.47445C15 7.13408 13.9449 6.04378 12.6483 6.04378ZM12.6481 9.59126C12.0522 9.59126 11.5674 9.09025 11.5674 8.47448C11.5674 7.85872 12.0521 7.35771 12.6481 7.35771C13.2439 7.35771 13.7286 7.85872 13.7286 8.47448C13.7286 9.09025 13.2439 9.59126 12.6481 9.59126Z" fill="#1F285A"/>
  <path d="M2.60589 0C2.25484 0 1.97031 0.294082 1.97031 0.65693V2.0584C1.97031 2.42125 2.25484 2.71533 2.60589 2.71533C2.95695 2.71533 3.24147 2.42125 3.24147 2.0584V0.65693C3.24147 0.294082 2.95695 0 2.60589 0Z" fill="#1F285A"/>
  <path d="M7.52107 0C7.17002 0 6.88549 0.294082 6.88549 0.65693V2.0584C6.88549 2.42125 7.17002 2.71533 7.52107 2.71533C7.87213 2.71533 8.15665 2.42125 8.15665 2.0584V0.65693C8.15665 0.294082 7.87213 0 7.52107 0Z" fill="#1F285A"/>
</svg>