<svg width="17" height="18" viewBox="0 0 17 18" fill="none" xmlns="http://www.w3.org/2000/svg">
  <path d="M11.9757 6.20599L10.5481 6.15431L10.2386 14.4963L11.6662 14.5478L11.9757 6.20599Z" fill="#E32A01"/>
  <path d="M9.21428 6.18015H7.78572V14.5222H9.21428V6.18015Z" fill="#E32A01"/>
  <path d="M6.76118 14.4961L6.45167 6.15407L5.02403 6.20578L5.33358 14.5478L6.76118 14.4961Z" fill="#E32A01"/>
  <path d="M0 2.70236V4.11226H1.48858L2.6695 17.3569C2.70188 17.7208 3.01072 18 3.38093 18H13.595C13.9652 18 14.2743 17.7206 14.3064 17.3566L15.4874 4.11226H17V2.70236H0ZM12.9407 16.5901H4.03501L2.92262 4.11226H14.0534L12.9407 16.5901Z" fill="#E32A01"/>
  <path d="M10.8333 0H6.16666C5.51023 0 4.97619 0.527062 4.97619 1.17492V3.40731H6.40475V1.40991H10.5952V3.40731H12.0238V1.17492C12.0238 0.527062 11.4898 0 10.8333 0Z" fill="#E32A01"/>
</svg>