<svg width="124" height="124" viewBox="0 0 124 124" fill="none" xmlns="http://www.w3.org/2000/svg">
  <path d="M105.841 80.1592C99.0879 73.4065 91.0501 68.4076 82.2805 65.3814C91.6731 58.9124 97.8438 48.0858 97.8438 35.8438C97.8438 16.0796 81.7642 0 62 0C42.2358 0 26.1562 16.0796 26.1562 35.8438C26.1562 48.0858 32.3269 58.9124 41.7197 65.3814C32.9501 68.4076 24.9124 73.4065 18.1595 80.1592C6.44921 91.8697 0 107.439 0 124H9.6875C9.6875 95.1547 33.1547 71.6875 62 71.6875C90.8453 71.6875 114.312 95.1547 114.312 124H124C124 107.439 117.551 91.8697 105.841 80.1592ZM62 62C47.5775 62 35.8438 50.2665 35.8438 35.8438C35.8438 21.421 47.5775 9.6875 62 9.6875C76.4225 9.6875 88.1562 21.421 88.1562 35.8438C88.1562 50.2665 76.4225 62 62 62Z" fill="#D0D2E0"/>
</svg>